<?xml version="1.0" encoding="UTF-8"?>
<svg version="1.1" xmlns="http://www.w3.org/2000/svg" width="1409" height="1051">
<path d="M0 0 C1.6982805 -0.00128164 1.6982805 -0.00128164 3.4308697 -0.00258917 C7.226441 -0.00423691 11.02196816 0.00126592 14.8175354 0.00672913 C17.53759794 0.00756803 20.25765962 0.00689695 22.97772217 0.00628662 C28.8347863 0.00576265 34.69183928 0.00889621 40.5489006 0.01452446 C49.01719406 0.02265662 57.48548212 0.02525644 65.95377906 0.02651245 C79.69352381 0.02870027 93.43326262 0.03535304 107.17300415 0.04481506 C120.51870697 0.05399616 133.86440818 0.06107359 147.21011353 0.06532288 C148.03294796 0.0655856 148.8557824 0.06584832 149.70355122 0.06611901 C153.83153107 0.06742406 157.95951093 0.06868776 162.0874908 0.06993091 C196.32514666 0.08029511 230.56279547 0.09790609 264.80044556 0.12025452 C265.93301392 4.85310364 265.93301392 4.85310364 264.73989868 7.25746155 C264.19269165 7.95726135 263.64548462 8.65706116 263.08169556 9.37806702 C262.48244263 10.16310608 261.8831897 10.94814514 261.26577759 11.75697327 C260.61721802 12.57810608 259.96865845 13.39923889 259.30044556 14.24525452 C257.99313621 15.95418953 256.68842339 17.66511413 255.38638306 19.37806702 C254.75957642 20.19823303 254.13276978 21.01839905 253.48696899 21.86341858 C250.89233787 25.33544668 248.62757807 28.97863257 246.35903931 32.66712952 C244.67216763 35.32215562 242.85619097 37.83979934 240.98794556 40.37025452 C237.35854924 45.28885724 233.95707308 50.32822217 230.58682251 55.42518616 C227.83111271 59.58804446 225.02686534 63.70975878 222.17544556 67.80775452 C214.85050396 78.17097496 214.85050396 78.17097496 208.19888306 88.96400452 C207.73739868 89.67556702 207.27591431 90.38712952 206.80044556 91.12025452 C206.14044556 91.12025452 205.48044556 91.12025452 204.80044556 91.12025452 C204.46593384 92.12185608 204.46593384 92.12185608 204.12466431 93.14369202 C202.39711197 97.02686276 200.06400506 100.28687085 197.61294556 103.74525452 C193.58949961 109.48567879 189.75442856 115.26766663 186.14028931 121.27650452 C185.69814087 121.88494202 185.25599243 122.49337952 184.80044556 123.12025452 C184.14044556 123.12025452 183.48044556 123.12025452 182.80044556 123.12025452 C182.53038696 123.85582581 182.26032837 124.59139709 181.98208618 125.34925842 C180.84410518 128.01787089 179.57729946 130.1035515 177.89419556 132.45619202 C177.32040161 133.26532043 176.74660767 134.07444885 176.15542603 134.90809631 C175.54328247 135.76185852 174.93113892 136.61562073 174.30044556 137.49525452 C173.02044642 139.3002852 171.7418089 141.10628218 170.46450806 142.91322327 C169.5233313 144.24426086 169.5233313 144.24426086 168.56314087 145.60218811 C166.20832542 148.966117 163.93182122 152.37733354 161.67544556 155.80775452 C157.62116814 161.95788721 153.39819871 167.97652873 149.1312561 173.98060608 C145.52024233 179.07148598 142.02891091 184.22411151 138.58950806 189.43275452 C135.73772142 193.71666108 132.76239033 197.91216384 129.80044556 202.12025452 C128.29720111 204.26391861 126.79634024 206.40897987 125.30044556 208.55775452 C124.92146118 209.10125549 124.54247681 209.64475647 124.15200806 210.20472717 C121.00009413 214.75794304 118.07110293 219.43058355 115.21060181 224.17103577 C114.74525024 224.81427795 114.27989868 225.45752014 113.80044556 226.12025452 C113.14044556 226.12025452 112.48044556 226.12025452 111.80044556 226.12025452 C111.57485962 226.78669983 111.34927368 227.45314514 111.11685181 228.13978577 C109.407103 232.01081942 107.12553571 235.32599292 104.73794556 238.80775452 C101.55841939 243.3377129 101.55841939 243.3377129 98.80044556 248.12025452 C98.14044556 248.12025452 97.48044556 248.12025452 96.80044556 248.12025452 C96.46013306 249.12959045 96.46013306 249.12959045 96.11294556 250.15931702 C94.43323832 253.94865657 92.18783507 257.12060174 89.80044556 260.49525452 C88.8008447 261.92821882 87.80216691 263.36182742 86.80435181 264.79603577 C86.04855835 265.88005676 86.04855835 265.88005676 85.27749634 266.98597717 C83.05848222 270.19236088 80.89410098 273.43388879 78.73794556 276.68275452 C78.13248901 277.59408142 78.13248901 277.59408142 77.51480103 278.52381897 C76.69643141 279.7562621 75.8783983 280.98892874 75.06069946 282.22181702 C72.85421992 285.54564207 70.6392925 288.86383412 68.42544556 292.18275452 C67.62592967 293.38194879 66.82644878 294.58116639 66.02700806 295.78041077 C65.65479126 296.33486877 65.28257446 296.88932678 64.89907837 297.46058655 C64.14962122 298.59276648 63.4151281 299.73496 62.69400024 300.88539124 C61.77866507 302.32938952 60.79517148 303.72975466 59.80044556 305.12025452 C59.14044556 305.12025452 58.48044556 305.12025452 57.80044556 305.12025452 C57.57485962 305.78669983 57.34927368 306.45314514 57.11685181 307.13978577 C55.407103 311.01081942 53.12553571 314.32599292 50.73794556 317.80775452 C47.55841939 322.3377129 47.55841939 322.3377129 44.80044556 327.12025452 C44.14044556 327.12025452 43.48044556 327.12025452 42.80044556 327.12025452 C41.52485791 333.01256684 41.52485791 333.01256684 43.50357056 338.58509827 C44.33154359 339.75775241 45.18198537 340.91476108 46.05044556 342.05775452 C46.98693735 343.37302588 47.92177364 344.68947722 48.85513306 346.00697327 C49.34336548 346.68292542 49.8315979 347.35887756 50.33462524 348.05531311 C52.72495169 351.42263175 54.94717833 354.8944487 57.17544556 358.37025452 C57.63241821 359.07843323 58.08939087 359.78661194 58.56021118 360.51625061 C67.25187171 373.99799525 75.73916021 387.60943346 84.23306274 401.21620178 C88.07117558 407.36218344 91.92522218 413.49761163 95.80044556 419.62025452 C100.32630819 426.77087217 104.81917198 433.94161419 109.30044556 441.12025452 C119.49925803 457.4497123 129.79540862 473.7025495 140.30923462 489.83119202 C142.50013889 493.19430898 144.68543024 496.56095403 146.86294556 499.93275452 C147.53454712 500.97044983 148.20614868 502.00814514 148.89810181 503.07728577 C150.25946399 505.25490618 151.5625358 507.42767684 152.82778931 509.65931702 C154.57597541 512.72643164 156.39687724 515.71059217 158.30044556 518.68275452 C158.86763306 519.57091858 159.43482056 520.45908264 160.01919556 521.37416077 C161.25418333 523.27810026 162.50254594 525.17340509 163.76138306 527.06166077 C169.70865256 535.98256503 175.4098977 545.06269313 181.07290649 554.16566467 C183.73021176 558.4302606 186.43632771 562.65774837 189.17544556 566.87025452 C192.90821621 572.61633692 196.42571537 578.47990937 199.92544556 584.37025452 C203.50655691 590.39517183 207.15267847 596.2749115 211.27700806 601.94837952 C213.52356173 605.1511586 215.4797262 608.51092394 217.44107056 611.89369202 C218.77679996 614.08152466 220.25488288 616.07775343 221.80044556 618.12025452 C222.70292447 619.69123633 223.60270697 621.26387502 224.48403931 622.84681702 C226.609076 626.51676169 228.88427635 630.09756029 231.15859985 633.676651 C233.80044556 637.90023076 233.80044556 637.90023076 233.80044556 640.12025452 C234.46044556 640.12025452 235.12044556 640.12025452 235.80044556 640.12025452 C236.97036743 641.71815491 236.97036743 641.71815491 238.26919556 643.96791077 C238.75299683 644.79363586 239.2367981 645.61936096 239.73526001 646.47010803 C240.25177124 647.36528137 240.76828247 648.26045471 241.30044556 649.18275452 C245.08628884 655.62617181 248.92426888 661.99243103 253.11294556 668.18275452 C253.52552612 668.79344788 253.93810669 669.40414124 254.3631897 670.03334045 C254.96248291 670.91940979 254.96248291 670.91940979 255.57388306 671.82337952 C259.6576765 677.87025963 263.54060274 684.03397183 267.32388306 690.27259827 C272.14802481 698.22711772 277.04533854 706.090923 282.24990845 713.80262756 C285.4648497 718.578294 288.49479227 723.44816293 291.48794556 728.36634827 C294.4461149 733.1988287 297.50357856 737.96841812 300.55044556 742.74525452 C305.63801959 750.72236309 310.70789273 758.71012367 315.75479126 766.71302795 C318.23709528 770.64831672 320.72844019 774.57722775 323.23794556 778.49525452 C327.23977219 784.76838816 331.13187996 791.10982247 335.04238892 797.44007874 C337.76902646 801.85059654 340.5020437 806.25474761 343.30044556 810.62025452 C346.77500644 816.04267529 350.16099197 821.51941219 353.55044556 826.99525452 C354.11827759 827.91242249 354.68610962 828.82959045 355.27114868 829.77455139 C358.33869504 834.73600599 358.33869504 834.73600599 359.80044556 837.12025452 C360.35119751 837.98408752 360.90194946 838.84792053 361.46939087 839.7379303 C362.97825376 842.43849598 363.06136179 844.0762318 362.80044556 847.12025452 C361.15044556 846.79025452 359.50044556 846.46025452 357.80044556 846.12025452 C357.47044556 845.13025452 357.14044556 844.14025452 356.80044556 843.12025452 C356.14044556 843.12025452 355.48044556 843.12025452 354.80044556 843.12025452 C352.94501837 840.6974653 351.20498533 838.26410914 349.48794556 835.74525452 C348.40437961 834.1807112 347.31970663 832.61693412 346.23403931 831.05384827 C345.67055786 830.2402887 345.10707642 829.42672913 344.52651978 828.58851624 C341.75368044 824.62339521 338.89898191 820.71864113 336.05044556 816.80775452 C321.80044556 797.14630855 321.80044556 797.14630855 321.80044556 794.12025452 C321.14044556 794.12025452 320.48044556 794.12025452 319.80044556 794.12025452 C318.53872681 792.50306702 318.53872681 792.50306702 317.11294556 790.24525452 C314.92085295 786.84538274 312.69099637 783.49131322 310.36294556 780.18275452 C309.77642212 779.34873108 309.18989868 778.51470764 308.58560181 777.65541077 C307.99650024 776.8188092 307.40739868 775.98220764 306.80044556 775.12025452 C305.63325555 773.45395431 304.4665869 771.78728879 303.30044556 770.12025452 C302.72294556 769.29525452 302.14544556 768.47025452 301.55044556 767.62025452 C299.80044556 765.12025452 298.05044556 762.62025452 296.30044556 760.12025452 C295.72165649 759.29396545 295.14286743 758.46767639 294.54653931 757.61634827 C293.39079101 755.96417118 292.23711281 754.31054389 291.08560181 752.65541077 C288.16322697 748.46070947 285.20615318 744.29994223 282.17544556 740.18275452 C274.78278227 730.05739469 267.77179804 719.64260861 260.86294556 709.18275452 C256.60408156 702.75342022 252.16053293 696.45417927 247.7225647 690.14784241 C246.07724423 687.80849919 244.43721479 685.46558643 242.80044556 683.12025452 C242.36796509 682.50504944 241.93548462 681.88984436 241.48989868 681.2559967 C238.80044556 677.35416269 238.80044556 677.35416269 238.80044556 675.12025452 C238.14044556 675.12025452 237.48044556 675.12025452 236.80044556 675.12025452 C235.47745143 673.25322542 234.24620082 671.32122363 233.05044556 669.37025452 C229.23256942 663.25640749 225.20584174 657.32194999 221.05044556 651.43275452 C212.71335008 639.5975612 204.4718332 627.69724635 196.48794556 615.62025452 C193.31174627 610.82573805 189.96580762 606.17605356 186.56607056 601.53822327 C180.80044556 593.64237841 180.80044556 593.64237841 180.80044556 591.12025452 C180.14044556 591.12025452 179.48044556 591.12025452 178.80044556 591.12025452 C177.31639555 589.02263598 175.953174 586.93244455 174.61294556 584.74525452 C173.80071512 583.44999681 172.98690158 582.15573053 172.17153931 580.86244202 C171.76919067 580.22274475 171.36684204 579.58304749 170.95230103 578.92396545 C167.7675842 573.93696082 164.26515897 569.1576162 160.81216431 564.35462952 C159.84730103 563.00111389 159.84730103 563.00111389 158.86294556 561.62025452 C158.27642212 560.80556702 157.68989868 559.99087952 157.08560181 559.15150452 C155.80044556 557.12025452 155.80044556 557.12025452 155.80044556 555.12025452 C155.14044556 555.12025452 154.48044556 555.12025452 153.80044556 555.12025452 C153.32607056 554.23337952 152.85169556 553.34650452 152.36294556 552.43275452 C148.41408218 545.51524208 143.59952752 539.08663922 139.01138306 532.58509827 C135.07665023 527.00001542 131.26858807 521.34066042 127.49209595 515.64808655 C125.13835146 512.10651697 122.75478103 508.59337076 120.30044556 505.12025452 C117.46328469 501.10038959 114.71348261 497.02863539 111.98794556 492.93275452 C111.5631189 492.29466858 111.13829224 491.65658264 110.70059204 490.99916077 C108.56611062 487.78881082 106.43980063 484.57333799 104.32388306 481.35072327 C99.63796301 474.23627261 94.78014618 467.30307578 89.69741821 460.46620178 C86.44743462 456.07069429 83.47980582 451.55951498 80.59732056 446.91322327 C78.50014234 443.65347886 76.25839548 440.51004433 73.98794556 437.37025452 C70.51132456 432.55875345 67.13774555 427.69642475 63.86294556 422.74525452 C57.51196497 413.14344579 51.00693755 403.64682572 44.36294556 394.24525452 C38.55703021 385.98085348 33.04096494 377.51343931 27.45864868 369.0973053 C22.22479328 361.20821585 16.93570595 353.36217271 11.55410767 345.57289124 C10.69990646 344.3362999 9.84985432 343.09682928 9.00454712 341.85414124 C7.85206275 340.19458244 6.6359867 338.57973272 5.41763306 336.96791077 C3.80044556 334.12025452 3.80044556 334.12025452 3.83560181 331.63978577 C5.03792207 328.50012355 6.53502961 325.7073141 8.23794556 322.80775452 C8.85540649 321.7391217 9.47286743 320.67048889 10.10903931 319.56947327 C10.66720337 318.76123108 11.22536743 317.95298889 11.80044556 317.12025452 C12.46044556 317.12025452 13.12044556 317.12025452 13.80044556 317.12025452 C13.98607056 316.33650452 14.17169556 315.55275452 14.36294556 314.74525452 C15.6585974 311.47795855 16.95721986 309.34074237 18.99575806 306.53041077 C22.60101551 301.46076312 25.88249854 296.2464289 29.11294556 290.93275452 C33.33815659 284.04135455 37.64454476 277.23314806 42.18447876 270.5450592 C44.38704036 267.28662346 46.51301223 263.99636541 48.56997681 260.64369202 C49.02670776 259.89966125 49.48343872 259.15563049 49.95401001 258.38905334 C50.83532681 256.9449083 51.71042678 255.49694639 52.57852173 254.04481506 C53.60006859 252.37016525 54.69373417 250.73988407 55.80044556 249.12025452 C56.46044556 249.12025452 57.12044556 249.12025452 57.80044556 249.12025452 C57.87263306 248.60076233 57.94482056 248.08127014 58.01919556 247.54603577 C59.1424052 244.05846983 61.22746528 241.28804927 63.30044556 238.30775452 C67.44811979 232.24826169 71.30239704 226.07752942 74.93130493 219.69325256 C75.83515708 218.13719841 76.81112847 216.62341949 77.80044556 215.12025452 C78.46044556 215.12025452 79.12044556 215.12025452 79.80044556 215.12025452 C79.88294556 214.59689514 79.96544556 214.07353577 80.05044556 213.53431702 C81.08934821 210.19034911 82.93071627 207.42406123 84.80044556 204.49525452 C87.43957885 200.38772645 87.43957885 200.38772645 89.80044556 196.12025452 C90.46044556 196.12025452 91.12044556 196.12025452 91.80044556 196.12025452 C92.05439087 195.42673889 92.30833618 194.73322327 92.56997681 194.01869202 C97.4647485 182.48878535 105.50577841 171.89642484 112.35098267 161.46595764 C116.27999473 155.47417712 120.1098509 149.44680826 123.82388306 143.31947327 C126.83731663 138.44199877 129.97695476 133.64677745 133.12173462 128.85316467 C133.5700061 128.16657776 134.01827759 127.47999084 134.48013306 126.77259827 C134.8795813 126.1640802 135.27902954 125.55556213 135.69058228 124.92860413 C136.84877983 123.04150134 137.83854074 121.11355643 138.80044556 119.12025452 C139.46044556 119.12025452 140.12044556 119.12025452 140.80044556 119.12025452 C141.06599243 118.41513733 141.33153931 117.71002014 141.60513306 116.98353577 C142.86543522 113.96457666 144.3400255 111.16840375 145.92544556 108.30775452 C146.73368774 106.84402405 146.73368774 106.84402405 147.55825806 105.35072327 C148.17314087 104.24664124 148.17314087 104.24664124 148.80044556 103.12025452 C149.46044556 103.12025452 150.12044556 103.12025452 150.80044556 103.12025452 C151.06671753 102.40127991 151.3329895 101.6823053 151.60733032 100.94154358 C152.81769561 98.07946435 154.23672668 95.60840751 155.89028931 92.97962952 C156.50452759 91.99953918 157.11876587 91.01944885 157.75161743 90.00965881 C158.40710571 88.9736554 159.06259399 87.93765198 159.73794556 86.87025452 C160.7463147 85.26694275 160.7463147 85.26694275 161.77505493 83.63124084 C166.5384273 76.07318295 171.35687722 68.55199556 176.23794556 61.06947327 C179.45776443 56.10722193 182.6246479 51.11079369 185.80044556 46.12025452 C127.39044556 46.12025452 68.98044556 46.12025452 8.80044556 46.12025452 C8.14044556 47.77025452 7.48044556 49.42025452 6.80044556 51.12025452 C5.96425674 52.60092947 5.08996573 54.06058813 4.18325806 55.49916077 C3.40583252 56.74173645 3.40583252 56.74173645 2.61270142 58.00941467 C1.77750977 59.3327179 1.77750977 59.3327179 0.92544556 60.68275452 C-3.54475494 67.8278643 -7.9520915 75.00237073 -12.26205444 82.24525452 C-17.04769047 90.26567674 -21.98374732 98.17914332 -26.99252319 106.06166077 C-30.63264632 111.79197069 -34.22934067 117.54919675 -37.82455444 123.30775452 C-38.46247925 124.32941711 -39.10040405 125.35107971 -39.75765991 126.40370178 C-40.99930635 128.39248404 -42.24084625 130.38133281 -43.48226929 132.37025452 C-45.01801684 134.82954659 -46.55544528 137.2877717 -48.09408569 139.74525452 C-48.9417609 141.09940932 -49.78941817 142.45357535 -50.63705444 143.80775452 C-51.03408569 144.4418927 -51.43111694 145.07603088 -51.84017944 145.72938538 C-53.67559834 148.66520587 -55.50132328 151.60623123 -57.30502319 154.56166077 C-61.26280068 161.04567921 -65.34048335 167.39253037 -69.63314819 173.65931702 C-71.32881033 176.10363008 -71.32881033 176.10363008 -72.19955444 179.12025452 C-72.85955444 179.12025452 -73.51955444 179.12025452 -74.19955444 179.12025452 C-74.44447632 179.80087952 -74.68939819 180.48150452 -74.94174194 181.18275452 C-76.44259905 184.68786179 -78.33885734 187.8764959 -80.32455444 191.12025452 C-80.85435913 191.99617249 -80.85435913 191.99617249 -81.39486694 192.88978577 C-84.93977325 198.73641944 -88.53767327 204.55094761 -92.12332153 210.37263489 C-93.90989462 213.27372644 -95.69529212 216.17554128 -97.48080444 219.07728577 C-98.18392378 220.21986738 -98.88704876 221.36244552 -99.59017944 222.50502014 C-100.10934937 223.34867126 -100.10934937 223.34867126 -100.63900757 224.20936584 C-103.49252319 228.84632874 -106.34603882 233.48329163 -109.19955444 238.12025452 C-113.01400757 237.34242249 -113.01400757 237.34242249 -114.68392944 235.34291077 C-115.31041382 234.27363342 -115.31041382 234.27363342 -115.94955444 233.18275452 C-116.37752319 232.47248108 -116.80549194 231.76220764 -117.24642944 231.03041077 C-118.19955444 229.12025452 -118.19955444 229.12025452 -118.19955444 227.12025452 C-118.85955444 227.12025452 -119.51955444 227.12025452 -120.19955444 227.12025452 C-120.67521851 226.15152405 -120.67521851 226.15152405 -121.16049194 225.16322327 C-127.39012312 212.58349843 -133.86968083 200.1276014 -140.82455444 187.93275452 C-144.10691598 182.17597544 -147.13261821 176.33607756 -150.04647827 170.38539124 C-152.70005538 165.01091034 -155.58229113 159.78577377 -158.51205444 154.55775452 C-163.01640773 146.48917494 -167.06822734 138.26766137 -171.00131226 129.90809631 C-176.90243374 117.41683155 -183.40641757 105.24132898 -189.89877319 93.04994202 C-194.23356813 84.89423311 -198.42037068 76.71252368 -202.29769897 68.32850647 C-204.54317452 63.47771082 -206.90266834 58.69763979 -209.32455444 53.93275452 C-212.44170521 47.78382333 -215.22077013 41.56127927 -217.87924194 35.19837952 C-219.02376537 32.53008229 -220.24712823 29.95084533 -221.57455444 27.37025452 C-223.19955444 24.12025452 -223.19955444 24.12025452 -223.19955444 22.12025452 C-220.94955444 21.37025452 -220.94955444 21.37025452 -218.19955444 21.12025452 C-215.08777003 23.75662742 -213.05296827 26.716206 -210.94955444 30.18275452 C-207.97200495 34.96449714 -204.78082968 39.50342419 -201.43783569 44.03431702 C-198.27514297 48.39474852 -195.24036998 52.83942626 -192.19882202 57.2848053 C-189.70159385 60.93456696 -187.18929729 64.57109011 -184.63705444 68.18275452 C-181.35611097 72.84968128 -178.20145918 77.59667107 -175.05331421 82.35365295 C-172.92445459 85.56262871 -170.77264638 88.75032944 -168.55892944 91.90150452 C-168.14111206 92.49664856 -167.72329468 93.0917926 -167.29281616 93.70497131 C-166.13825463 95.34241259 -164.97767093 96.97560278 -163.81674194 98.60853577 C-162.19955444 101.12025452 -162.19955444 101.12025452 -162.19955444 103.12025452 C-161.53955444 103.12025452 -160.87955444 103.12025452 -160.19955444 103.12025452 C-159.65170288 104.11541077 -159.10385132 105.11056702 -158.53939819 106.13587952 C-156.19461544 110.23539447 -153.51877151 114.04021803 -150.76205444 117.87025452 C-140.42247075 132.3831015 -130.46180944 147.1489839 -120.61019897 161.99623108 C-118.1452436 165.70774229 -115.6721328 169.41381902 -113.19955444 173.12025452 C-110.3985319 169.81158396 -108.34174962 166.66838472 -106.51205444 162.74525452 C-104.18194943 157.94418172 -101.61945374 153.40647228 -98.82455444 148.87025452 C-94.88755296 142.44724707 -91.47829451 135.85769125 -88.16439819 129.09681702 C-83.50033635 119.59225296 -78.36882807 110.34561217 -73.06332397 101.18714905 C-70.37962025 96.52081778 -67.99074495 91.74214779 -65.62533569 86.90931702 C-64.27650807 84.27078845 -62.8179739 81.76592615 -61.26205444 79.24525452 C-58.57839566 74.88344218 -56.32481212 70.38277593 -54.08432007 65.78041077 C-51.70007573 60.96042652 -49.02981395 56.35381293 -46.26205444 51.74525452 C-42.5493884 45.5577114 -39.19568135 39.28329185 -36.03231812 32.79969788 C-33.5344274 27.70689252 -30.77704383 22.81739431 -27.86361694 17.94837952 C-25.63661285 14.1635181 -23.59310547 10.28881702 -21.55892944 6.39759827 C-20.22422322 4.16158181 -19.29303338 2.66155438 -17.19955444 1.12025452 C-11.52570647 -0.22567134 -5.79390409 -0.01597532 0 0 Z " fill="#FFFFFF" transform="translate(1025.1995544433594,171.87974548339844)"/>
<path d="M0 0 C3.35365861 -0.73170733 4.80183197 -1.03063887 8 0 C11.56726247 3.6159623 14.2249869 7.77022241 17 12 C18.28750586 13.81545798 19.57878179 15.62825226 20.875 17.4375 C27 26.18115942 27 26.18115942 27 29 C27.66 29 28.32 29 29 29 C30.515625 31.08984375 30.515625 31.08984375 32.25 33.9375 C32.8790625 34.95328125 33.508125 35.9690625 34.15625 37.015625 C34.7646875 38.00046875 35.373125 38.9853125 36 40 C40.13830157 46.39137687 44.49566777 52.63722467 48.81787109 58.90478516 C52.35821935 64.04571364 55.83057244 69.22679165 59.2734375 74.43359375 C60.80119355 76.70448905 62.37919582 78.92016303 64 81.125 C66 84 66 84 66 86 C66.66 86 67.32 86 68 86 C69.3046875 87.80859375 69.3046875 87.80859375 70.875 90.4375 C74.07285707 95.61562003 77.47409094 100.60229507 81 105.5625 C81.7885437 106.67310791 81.7885437 106.67310791 82.59301758 107.80615234 C83.61196533 109.23973062 84.63155075 110.67285594 85.65185547 112.10546875 C88.46045971 116.05236642 91.23334063 120.02365066 94 124 C94.44827148 124.63921387 94.89654297 125.27842773 95.35839844 125.93701172 C96.88937053 128.12149585 98.41382195 130.31042359 99.9375 132.5 C100.43515869 133.20777588 100.93281738 133.91555176 101.44555664 134.64477539 C105 139.77260919 105 139.77260919 105 142 C105.66 142 106.32 142 107 142 C108.4453125 144.01953125 108.4453125 144.01953125 110.125 146.8125 C112.53963322 150.71764756 115.02218233 154.49428184 117.75 158.1875 C124.45104311 167.27806235 130.79494659 176.62776716 137 186.0625 C140.4129052 191.21313697 144.03719992 196.17874129 147.71386719 201.14160156 C152.58067975 207.73480588 157.19427442 214.49362363 161.81005859 221.26367188 C163.37335302 223.54478594 164.96614931 225.80443018 166.5625 228.0625 C169.89859161 232.80663027 173.09952713 237.63686234 176.30664062 242.46850586 C179.21866405 246.84817579 182.18922498 251.17979633 185.22265625 255.4765625 C187.72656333 259.03156025 190.19494229 262.61097131 192.66650391 266.18847656 C194.90715675 269.42909805 197.16527894 272.6564657 199.4375 275.875 C202.17052599 279.76956204 204.81295442 283.71948148 207.4375 287.6875 C217.88448779 303.45343953 228.87326903 318.86120263 239.796875 334.29882812 C244.79236907 341.36226212 249.70439966 348.48041134 254.59521484 355.61645508 C258.08204937 360.69257954 261.62446361 365.72715538 265.1875 370.75 C269.15179965 376.343524 273.0269621 381.98121456 276.8046875 387.703125 C279.68889811 392.03457296 282.62365132 396.33049829 285.5625 400.625 C286.09286865 401.40085449 286.6232373 402.17670898 287.16967773 402.97607422 C292.12906497 410.21682544 297.17079307 417.39898013 302.21875 424.578125 C309.76917114 435.32247145 317.20802906 446.13798885 324.59375 456.99609375 C329.90810813 464.80849221 335.25897096 472.59216217 340.77270508 480.265625 C342.45056627 482.60313368 344.11902572 484.94722978 345.78466797 487.29345703 C346.59225609 488.42745482 347.40376372 489.55867187 348.21923828 490.68701172 C349.36817089 492.28157379 350.49700059 493.89056169 351.625 495.5 C352.27726562 496.4178125 352.92953125 497.335625 353.6015625 498.28125 C355.28367831 501.55150868 355.48505928 503.36441008 355 507 C353.71484375 509.859375 353.71484375 509.859375 351.9375 512.75 C351.29554688 513.79929687 350.65359375 514.84859375 349.9921875 515.9296875 C347.69571032 519.4689641 345.26704819 522.89271233 342.80859375 526.3203125 C340.74679156 529.37516412 338.92306892 532.53644882 337.125 535.75 C332.03749078 544.83111714 326.46958217 553.57645712 320.4375 562.0625 C315.94221883 568.38958192 311.4724506 575.0550988 308 582 C307.34 582 306.68 582 306 582 C305.87794189 582.589021 305.75588379 583.17804199 305.63012695 583.78491211 C304.99237924 586.02678928 304.20226693 587.50991128 302.91796875 589.44140625 C302.48645508 590.09810303 302.05494141 590.7547998 301.61035156 591.43139648 C301.14081055 592.13466064 300.67126953 592.8379248 300.1875 593.5625 C299.18509209 595.0852101 298.18383274 596.6086768 297.18359375 598.1328125 C296.6613623 598.92719727 296.13913086 599.72158203 295.60107422 600.54003906 C292.93253101 604.64010637 290.34575332 608.79112779 287.75 612.9375 C284.06301306 618.81647805 280.31430367 624.59121641 276.20703125 630.1875 C274.82263682 632.09436057 274.82263682 632.09436057 274 635 C273.34 635 272.68 635 272 635 C271.58379395 636.10420288 271.58379395 636.10420288 271.15917969 637.23071289 C270.09334961 639.77698724 268.91082726 641.97136188 267.453125 644.30859375 C266.69056396 645.53666748 266.69056396 645.53666748 265.91259766 646.78955078 C265.36394043 647.66337402 264.8152832 648.53719727 264.25 649.4375 C263.67942871 650.35257324 263.10885742 651.26764648 262.52099609 652.21044922 C256.62699076 661.64246157 250.65447008 671.02496146 244.66259766 680.39501953 C243.50305161 682.21181194 242.34672438 684.030661 241.19287109 685.85107422 C237.98695333 690.90838151 234.73736481 695.9205614 231.375 700.875 C226.61514945 707.94376117 222.14484905 715.17984758 217.68383789 722.43969727 C214.22234105 728.06123375 210.66249071 733.58044621 206.9609375 739.046875 C203.22106284 744.67903683 199.69549428 750.44832269 196.12695312 756.18994141 C191.22437129 764.06423554 186.17116661 771.8423346 181.125 779.625 C180.54065186 780.52766602 179.95630371 781.43033203 179.35424805 782.36035156 C178.80679932 783.20307617 178.25935059 784.04580078 177.6953125 784.9140625 C177.20047363 785.6767041 176.70563477 786.4393457 176.19580078 787.22509766 C175 789 175 789 174 790 C232.74 790.33 291.48 790.66 352 791 C352.66 789.35 353.32 787.7 354 786 C355.09241035 784.01353396 356.22236985 782.04748477 357.37890625 780.09765625 C358.04873535 778.96650391 358.71856445 777.83535156 359.40869141 776.66992188 C360.12641595 775.46732157 360.84435602 774.26484988 361.5625 773.0625 C362.29349172 771.83270291 363.02444865 770.60288514 363.75537109 769.37304688 C368.0228201 762.21095218 372.36921789 755.116521 377.0078125 748.1875 C378.73792336 745.41932263 380.29646085 742.63571728 381.83984375 739.76171875 C384.80121314 734.27855823 388.05289239 729.04206015 391.4375 723.8125 C392.6713642 721.88852806 393.90440764 719.96402956 395.13671875 718.0390625 C395.77013184 717.05067383 396.40354492 716.06228516 397.05615234 715.04394531 C400.31427021 709.94193407 403.53688104 704.81794077 406.75 699.6875 C407.37535645 698.69016846 408.00071289 697.69283691 408.64501953 696.6652832 C412.92661402 689.80468028 417.07910239 682.87864421 421.03222656 675.82299805 C421.96823199 674.18375588 422.97640902 672.58602728 424 671 C424.66 671 425.32 671 426 671 C426.11537109 670.42813965 426.23074219 669.8562793 426.34960938 669.26708984 C427.06173288 666.78481549 428.07077582 664.93459211 429.40625 662.7265625 C429.89875244 661.90816895 430.39125488 661.08977539 430.89868164 660.24658203 C431.4271167 659.38145996 431.95555176 658.51633789 432.5 657.625 C433.03810303 656.73538574 433.57620605 655.84577148 434.13061523 654.92919922 C438.02292215 648.52261785 442.03234718 642.20236386 446.16015625 635.9453125 C447.97586019 633.0386442 449.52000959 630.08907655 451 627 C451.66 627 452.32 627 453 627 C453.11698242 626.42419189 453.23396484 625.84838379 453.35449219 625.25512695 C454.04781248 622.83296373 455.0094829 621.06063682 456.328125 618.91796875 C456.79863281 618.15033203 457.26914062 617.38269531 457.75390625 616.59179688 C458.24761719 615.79837891 458.74132812 615.00496094 459.25 614.1875 C459.96736328 613.01477539 459.96736328 613.01477539 460.69921875 611.81835938 C463.62579135 607.07160138 466.70732791 602.50038576 470 598 C471.82128906 598.19921875 471.82128906 598.19921875 474 599 C475.48339844 601.08203125 475.48339844 601.08203125 476.859375 603.8125 C477.37306641 604.81152344 477.88675781 605.81054688 478.41601562 606.83984375 C478.93873047 607.88269531 479.46144531 608.92554688 480 610 C481.02395051 611.95942754 482.04999013 613.9177648 483.078125 615.875 C484.13639896 617.91615768 485.1936608 619.95784037 486.25 622 C490.56134626 630.31364424 494.89046297 638.61703155 499.26293945 646.89868164 C501.48933357 651.11902197 503.70190198 655.34606245 505.8984375 659.58203125 C510.74665807 668.92662964 515.63926377 678.23336006 520.75 687.4375 C525.06566876 695.21593553 529.13750016 703.08233729 533.05273438 711.06884766 C534.66919831 714.3642677 536.30081813 717.65208115 537.9375 720.9375 C538.26371338 721.59234375 538.58992676 722.2471875 538.92602539 722.921875 C541.78859261 728.63722289 544.77761972 734.28197401 547.78271484 739.92333984 C550.4282544 744.89704587 552.99451182 749.90317963 555.4921875 754.953125 C556.88269871 757.76296631 558.29256208 760.56250768 559.70507812 763.36132812 C564.86265833 773.60471307 569.80268979 783.95053206 574.71777344 794.31201172 C575.88444751 796.75776221 577.06724377 799.19472365 578.2578125 801.62890625 C578.90114594 802.96088714 579.54438336 804.29291442 580.1875 805.625 C580.73792969 806.75164063 581.28835938 807.87828125 581.85546875 809.0390625 C582.98398338 811.9585645 583.25860023 813.90829053 583 817 C582.01 817.33 581.02 817.66 580 818 C576.00270134 814.36609213 573.05423882 810.37672879 570.0078125 805.92578125 C567.77419077 802.67095114 565.48652608 799.45875111 563.1875 796.25 C562.56065308 795.37142334 562.56065308 795.37142334 561.92114258 794.47509766 C559.69841422 791.36133449 557.46239499 788.25818655 555.20703125 785.16796875 C554.75368408 784.5430957 554.30033691 783.91822266 553.83325195 783.27441406 C552.9676385 782.08179812 552.0979108 780.89215354 551.22338867 779.70605469 C548.96693558 776.58777792 547.24918887 773.64573055 546 770 C545.34 770 544.68 770 544 770 C542.58984375 768.05078125 542.58984375 768.05078125 540.9375 765.3125 C538.25696343 760.97470223 535.48142259 756.74393237 532.5625 752.5625 C528.97290291 747.41994587 525.45721203 742.23388578 521.99609375 737.00390625 C520.58323261 734.87770231 519.16056925 732.76140462 517.72265625 730.65234375 C516.98917969 729.57082031 516.25570312 728.48929688 515.5 727.375 C514.8296875 726.39273438 514.159375 725.41046875 513.46875 724.3984375 C512 722 512 722 512 720 C511.34 720 510.68 720 510 720 C508.58984375 718.05078125 508.58984375 718.05078125 506.9375 715.3125 C504.32017806 711.07621603 501.61223124 706.94995399 498.75 702.875 C493.70992411 695.65519898 488.96006966 688.25855518 484.19677734 680.85449219 C480.28244474 674.78895354 476.20914239 668.86324711 472 663 C471.68361572 663.6077124 471.36723145 664.2154248 471.04125977 664.84155273 C460.44437639 685.19009872 460.44437639 685.19009872 455.125 695.1875 C452.11620989 700.84250298 449.19760792 706.53222642 446.38671875 712.2890625 C445.04393921 714.91410194 443.60478334 717.46834844 442.1315918 720.02197266 C439.88831974 723.94322189 437.72903823 727.91100036 435.5625 731.875 C434.787854 733.29184082 434.787854 733.29184082 433.99755859 734.73730469 C429.3876263 743.20983711 424.93258879 751.7594695 420.54125977 760.34716797 C417.65158443 765.96457537 414.59857146 771.41388744 411.30859375 776.80615234 C409.68495004 779.52817891 408.29524999 782.32450072 406.9375 785.1875 C403.30016014 792.66378256 399.18291035 799.85673003 395.06713867 807.07739258 C390.74351914 814.66478031 386.51167023 822.29792252 382.33886719 829.96923828 C381.91250977 830.75024902 381.48615234 831.53125977 381.046875 832.3359375 C380.48758301 833.36533447 380.48758301 833.36533447 379.91699219 834.41552734 C379 836 379 836 378 837 C375.80644669 837.13072197 373.60858387 837.18884715 371.41137695 837.22119141 C370.70487692 837.2326718 369.99837688 837.2441522 369.27046776 837.25598049 C366.84311852 837.29343061 364.41574889 837.32285264 361.98828125 837.3515625 C360.20083052 837.37531775 358.41338038 837.39911788 356.62593079 837.42295837 C351.59411931 837.48714586 346.56224258 837.54138405 341.53028107 837.59233475 C339.39273676 837.61403399 337.25519888 837.63637585 335.11766815 837.65937424 C254.75133595 838.52320453 174.36584995 837.57854263 94 837 C94 835.35 94 833.7 94 832 C94.66 832 95.32 832 96 832 C96.0825 831.46375 96.165 830.9275 96.25 830.375 C97.27581271 827.12659309 98.96563894 824.71248141 101 822 C101.66 822 102.32 822 103 822 C103.38865234 820.92878906 103.38865234 820.92878906 103.78515625 819.8359375 C107.496385 811.17242601 114.05129012 803.52980843 119.65234375 795.98632812 C123.76876139 790.4021714 127.61146333 784.65715801 131.42626953 778.86425781 C135.5382073 772.63810651 139.80994201 766.53730247 144.16772461 760.48095703 C144.64089111 759.81950684 145.11405762 759.15805664 145.6015625 758.4765625 C146.01744629 757.89986816 146.43333008 757.32317383 146.86181641 756.72900391 C148.07657147 754.883681 149.04980556 752.99262486 150 751 C150.66 751 151.32 751 152 751 C152.22558594 750.33355469 152.45117188 749.66710937 152.68359375 748.98046875 C154.39334256 745.1094351 156.67490985 741.79426159 159.0625 738.3125 C162.24202617 733.78254162 162.24202617 733.78254162 165 729 C165.66 729 166.32 729 167 729 C167.268125 728.278125 167.53625 727.55625 167.8125 726.8125 C168.99901362 724.00233617 170.27485639 721.51583443 172 719 C172.66 719 173.32 719 174 719 C174.38671875 717.66775391 174.38671875 717.66775391 174.78125 716.30859375 C176.00095034 712.99742008 177.35722428 710.84196113 179.5 708.0625 C182.84256357 703.60979282 185.99785345 699.08254613 189.0625 694.4375 C192.28998528 689.55843344 195.56624171 684.72666441 198.9375 679.9453125 C201.91895118 675.68770986 204.86819792 671.40835124 207.8125 667.125 C208.38846924 666.29129883 208.96443848 665.45759766 209.55786133 664.59863281 C210.37420044 663.40898926 210.37420044 663.40898926 211.20703125 662.1953125 C211.6966333 661.48391113 212.18623535 660.77250977 212.69067383 660.03955078 C213.9491364 658.07923075 215.00127403 656.10261209 216 654 C216.66 654 217.32 654 218 654 C218.22816406 653.32582031 218.45632813 652.65164063 218.69140625 651.95703125 C220.35663665 648.19410762 222.57109022 645.04052947 224.9375 641.6875 C225.9232763 640.27220452 226.90895021 638.85683771 227.89453125 637.44140625 C228.40322754 636.71453613 228.91192383 635.98766602 229.43603516 635.23876953 C232.01588541 631.54579001 234.57055851 627.83557756 237.125 624.125 C237.59800537 623.44139404 238.07101074 622.75778809 238.55834961 622.0534668 C240.94700755 618.62854619 240.94700755 618.62854619 243 615 C243.66 615 244.32 615 245 615 C245.226875 614.32710937 245.45375 613.65421875 245.6875 612.9609375 C247.36721188 609.17158749 249.61265018 605.99969536 252 602.625 C252.99566922 601.19722615 253.99044044 599.76882571 254.984375 598.33984375 C255.48775391 597.61780762 255.99113281 596.89577148 256.50976562 596.15185547 C258.79314916 592.85471548 261.0267553 589.52538776 263.25 586.1875 C263.65992188 585.57398682 264.06984375 584.96047363 264.4921875 584.32836914 C267.64988116 579.58100591 270.67156038 574.75634139 273.625 569.87890625 C274.07875 569.25886719 274.5325 568.63882813 275 568 C275.66 568 276.32 568 277 568 C277.268125 567.278125 277.53625 566.55625 277.8125 565.8125 C278.99901362 563.00233617 280.27485639 560.51583443 282 558 C282.66 558 283.32 558 284 558 C284.34998047 556.98292969 284.34998047 556.98292969 284.70703125 555.9453125 C286.31641188 552.27923094 288.4274354 549.16729957 290.6875 545.875 C291.59471476 544.53580931 292.50095938 543.19596091 293.40625 541.85546875 C293.8496875 541.19981934 294.293125 540.54416992 294.75 539.86865234 C296.44311514 537.33757749 298.06867836 534.7665772 299.6875 532.1875 C301.85755571 528.74988839 304.0956094 525.38545287 306.4375 522.0625 C307.00210937 521.25167969 307.56671875 520.44085937 308.1484375 519.60546875 C309.49589279 517.70936605 310.88150441 515.84020496 312.2890625 513.98828125 C316.45438621 508.72964106 316.45438621 508.72964106 318.05859375 502.4609375 C317.51313762 500.01668553 317.51313762 500.01668553 316 497 C315.34 497 314.68 497 314 497 C312.45262912 494.73750951 311.02744768 492.475897 309.625 490.125 C305.33424228 483.0790318 300.84833213 476.19638157 296.19970703 469.38134766 C287 455.77077939 287 455.77077939 287 452 C286.34 452 285.68 452 285 452 C284.44699219 451.01128906 283.89398437 450.02257812 283.32421875 449.00390625 C280.96805495 444.88243044 278.40956019 440.91014894 275.8125 436.9375 C274.83185067 435.42980494 273.85138447 433.92199075 272.87109375 432.4140625 C272.1438208 431.29692871 272.1438208 431.29692871 271.40185547 430.15722656 C269.01055142 426.47740027 266.64004101 422.78428657 264.27026367 419.09057617 C262.46258561 416.27358775 260.6498549 413.46029794 258.828125 410.65234375 C254.70095612 404.28510571 250.6825158 397.86442546 246.75 391.375 C242.86211286 384.96524012 238.8574359 378.64621342 234.75 372.375 C229.88834742 364.95105622 225.1306439 357.46912331 220.4375 349.9375 C219.80360352 348.92034912 219.16970703 347.90319824 218.51660156 346.85522461 C217.26592894 344.84760832 216.01543678 342.83987959 214.76513672 340.83203125 C207.17140936 328.64845762 199.43434061 316.56804538 191.57299805 304.55541992 C186.10482491 296.1888277 180.75169123 287.75415256 175.43847656 279.28857422 C174.00221477 277.00352363 172.5607175 274.72187132 171.1171875 272.44140625 C164.88033569 262.58814087 158.69027113 252.70672374 152.52758789 242.80688477 C148.19556632 235.86430489 143.78862708 228.97569922 139.23608398 222.17529297 C137.22755908 219.12999703 135.74770357 216.56686604 135 213 C134.34 213 133.68 213 133 213 C132.6589624 212.35095703 132.3179248 211.70191406 131.96655273 211.03320312 C128.00544387 203.62001714 123.63401434 196.54973356 119.0625 189.5 C117.699098 187.38549452 116.33581584 185.27091176 114.97265625 183.15625 C114.30830566 182.12822266 113.64395508 181.10019531 112.95947266 180.04101562 C110.49616409 176.21806876 108.05753061 172.3797281 105.61889648 168.54101562 C103.26585853 164.84769349 100.88416568 161.17327088 98.5 157.5 C97.54798138 156.02877245 96.59615832 154.55741834 95.64453125 153.0859375 C94.0831778 150.67197731 92.51832035 148.26050705 90.94921875 145.8515625 C88.17792876 141.56251503 85.57166713 137.26667218 83.1875 132.75 C79.63698176 126.10464501 75.38046956 119.96454248 71.16357422 113.73242188 C68.35204941 109.54640004 65.68662103 105.2666734 63 101 C62.06151098 99.51803086 61.12267868 98.03627909 60.18359375 96.5546875 C55.72762662 89.51924741 51.27722904 82.48286897 46.9375 75.375 C43.3164471 69.45655639 39.55645266 63.63345292 35.76733398 57.82177734 C33.4419379 54.25142974 31.17806345 50.6628441 29 47 C27.42696423 44.45189379 25.83856458 41.91344659 24.25 39.375 C23.58629395 38.31321533 23.58629395 38.31321533 22.90917969 37.22998047 C20.37592852 33.18210596 17.82411981 29.1470622 15.25 25.125 C13.08671499 21.74075085 10.98761355 18.32893808 8.9375 14.875 C6.46961433 10.71751067 3.83463325 6.7023239 1.1015625 2.71484375 C0 1 0 1 0 0 Z " fill="#FFFFFF" transform="translate(444,0)"/>
<path d="M0 0 C1.22925705 -0.00426498 2.4585141 -0.00852997 3.72502136 -0.01292419 C5.09501651 -0.01257463 6.46501164 -0.01211307 7.83500671 -0.0115509 C9.27231941 -0.01454199 10.70963131 -0.0179444 12.14694214 -0.02172852 C16.06079918 -0.03058544 19.97463436 -0.03290755 23.88850045 -0.0335443 C26.33727194 -0.03425473 28.78603786 -0.03638907 31.23480797 -0.03904152 C39.78904447 -0.04830586 48.34326536 -0.05237571 56.89750671 -0.05158997 C64.84983954 -0.05099132 72.80210406 -0.06149825 80.75441962 -0.07733363 C87.59282635 -0.09046152 94.43121092 -0.09577155 101.26963013 -0.09513456 C105.34843128 -0.09488078 109.42717195 -0.09766406 113.50596046 -0.10831261 C117.35304138 -0.11808024 121.20000519 -0.11801418 125.04709053 -0.11079597 C126.44939599 -0.10976027 127.85170906 -0.11205174 129.25400162 -0.11815643 C145.98261671 -0.18618518 162.43891435 1.05927029 175.17362976 12.95011902 C184.45709033 22.89668391 187.62042263 34.10474239 187.16581726 47.50871277 C186.19584079 58.59576945 182.42578992 67.69558957 175.22831726 76.13371277 C176.18093445 76.90715027 177.13355164 77.68058777 178.11503601 78.47746277 C189.17418388 87.59233872 195.3233037 94.39570088 197.22831726 109.13371277 C198.2816114 123.9286791 197.83473578 137.12568962 188.22831726 149.13371277 C186.66581726 150.88371277 186.66581726 150.88371277 185.22831726 152.13371277 C184.56831726 152.13371277 183.90831726 152.13371277 183.22831726 152.13371277 C182.89831726 153.12371277 182.56831726 154.11371277 182.22831726 155.13371277 C179.77909851 156.81730652 179.77909851 156.81730652 176.54081726 158.57121277 C175.50570007 159.14742371 174.47058289 159.72363464 173.40409851 160.31730652 C162.04806427 165.63345837 151.0226432 166.71101268 138.67607117 166.58781433 C137.0423607 166.58658574 135.40864811 166.58712848 133.77493858 166.58927536 C129.44330957 166.59016964 125.11213249 166.56717367 120.78060913 166.53883362 C116.69960784 166.51586631 112.61871035 166.51497107 108.53764343 166.51213074 C96.64280938 166.49123338 84.74805743 166.43538827 72.85331726 166.38371277 C46.24706726 166.30121277 19.64081726 166.21871277 -7.77168274 166.13371277 C-7.77168274 111.68371277 -7.77168274 57.23371277 -7.77168274 1.13371277 C-5.08323421 -0.2105115 -3.01151438 0.0047049 0 0 Z M32.22831726 32.13371277 C32.22831726 43.02371277 32.22831726 53.91371277 32.22831726 65.13371277 C45.81498194 65.22408199 59.40144699 65.29746844 72.98834419 65.34096146 C79.29728995 65.36183591 85.60601942 65.39015167 91.9148407 65.43547058 C98.00322979 65.47893233 104.09141084 65.50285094 110.17994308 65.51322174 C112.50278371 65.52061243 114.82561296 65.53504464 117.14836502 65.556633 C120.40199132 65.58567045 123.65475801 65.5896685 126.90849304 65.58781433 C127.86874893 65.60219543 128.82900482 65.61657654 129.81835938 65.63139343 C135.56853933 65.59593638 138.87936835 65.01783026 143.22831726 61.13371277 C143.72331726 59.64871277 143.72331726 59.64871277 144.22831726 58.13371277 C144.88831726 58.13371277 145.54831726 58.13371277 146.22831726 58.13371277 C147.40509987 51.07301713 148.34865881 43.3142251 144.22831726 37.13371277 C143.56831726 37.13371277 142.90831726 37.13371277 142.22831726 37.13371277 C142.22831726 36.47371277 142.22831726 35.81371277 142.22831726 35.13371277 C136.77093144 31.71534208 132.22503068 31.72253126 126.00028992 31.7931366 C124.98504242 31.79269852 123.96979492 31.79226044 122.92378235 31.79180908 C119.57978348 31.79389324 116.23629067 31.81720725 112.89237976 31.84074402 C110.56925226 31.84634128 108.24612121 31.85061077 105.92298889 31.85360718 C99.81718622 31.86504559 93.71159861 31.89450443 87.60588074 31.92771912 C81.37198292 31.95844146 75.13805026 31.97211716 68.90409851 31.98722839 C56.67872854 32.01937489 44.45357446 32.07213491 32.22831726 32.13371277 Z M32.22831726 98.13371277 C32.22831726 109.68371277 32.22831726 121.23371277 32.22831726 133.13371277 C46.67585722 133.22416863 61.12320834 133.29751854 75.57096767 133.34096146 C82.28001515 133.36154611 88.98887358 133.38958756 95.69779968 133.43547058 C102.17523258 133.47900897 108.65246935 133.50286713 115.13003731 133.51322174 C117.59832406 133.52059867 120.06660038 133.53500404 122.53480339 133.556633 C125.99854908 133.58577212 129.46148972 133.58966423 132.92533875 133.58781433 C133.94026398 133.60219543 134.95518921 133.61657654 136.00086975 133.63139343 C143.07708489 133.59063995 149.40058138 132.41923887 154.91463375 127.68626785 C157.76400415 124.31878667 157.42455913 120.52778684 157.47831726 116.32121277 C157.50409851 115.11851746 157.52987976 113.91582214 157.55644226 112.67668152 C157.08123433 107.54556727 155.49915202 104.30923492 151.72831726 100.82121277 C148.23463432 98.46297678 145.65326227 98.00893285 141.53967285 98.01345825 C140.5763353 98.01208359 139.61299774 98.01070892 138.62046814 98.0092926 C137.03767059 98.01468552 137.03767059 98.01468552 135.42289734 98.02018738 C134.31055222 98.02004135 133.19820709 98.01989532 132.05215454 98.01974487 C128.36736618 98.02044277 124.68262807 98.02822946 120.99784851 98.03605652 C118.44622831 98.03792113 115.89460775 98.03934483 113.34298706 98.04034424 C107.30819603 98.04377514 101.27342665 98.05166046 95.2386443 98.06169373 C88.36809128 98.07286872 81.49753741 98.07836881 74.62697756 98.08338916 C60.49407893 98.09384343 46.36120314 98.11218338 32.22831726 98.13371277 Z " fill="#FFFFFF" transform="translate(816.7716827392578,419.8662872314453)"/>
<path d="M0 0 C1.28519531 -0.01224609 2.57039062 -0.02449219 3.89453125 -0.03710938 C16.81396932 -0.05658591 29.2435152 1.44192149 41.6875 4.9375 C42.62658203 5.19772949 43.56566406 5.45795898 44.53320312 5.72607422 C57.61830831 9.4953995 69.34882698 16.02888612 79.5 25.1875 C79.5 25.8475 79.5 26.5075 79.5 27.1875 C80.16 27.1875 80.82 27.1875 81.5 27.1875 C98.90916242 46.82503521 103.10789383 70.58033127 101.75244141 96.16210938 C101.19735261 102.81458556 99.69328426 108.88276302 97.5 115.1875 C97.22285156 116.07566406 96.94570313 116.96382812 96.66015625 117.87890625 C91.20303334 133.54613009 79.01366546 148.21108218 64.5 156.1875 C61.70703125 156.87109375 61.70703125 156.87109375 59.5 157.1875 C59.5 157.8475 59.5 158.5075 59.5 159.1875 C51.17738608 162.27757943 42.85137879 165.27491641 34.25 167.5 C32.47882813 167.95826172 32.47882813 167.95826172 30.671875 168.42578125 C19.94182203 170.65359106 8.71805152 170.39535703 -2.1875 170.375 C-2.89032104 170.37373108 -3.59314209 170.37246216 -4.31726074 170.37115479 C-26.1539575 170.29616357 -45.51853541 167.51787968 -65.5 158.1875 C-66.43328125 157.7646875 -67.3665625 157.341875 -68.328125 156.90625 C-84.57753048 148.72912982 -95.28129759 135.03077515 -101.5 118.1875 C-101.94666016 117.04667969 -101.94666016 117.04667969 -102.40234375 115.8828125 C-110.6215841 93.5559208 -108.02907595 65.64079801 -98.5 44.1875 C-94.80563282 37.32021938 -90.27095088 30.50164738 -84.5 25.1875 C-83.84 25.1875 -83.18 25.1875 -82.5 25.1875 C-82.17 24.1975 -81.84 23.2075 -81.5 22.1875 C-79.40090124 20.60874121 -77.34700073 19.1963217 -75.125 17.8125 C-74.16400391 17.21151489 -74.16400391 17.21151489 -73.18359375 16.59838867 C-61.01130061 9.11066693 -48.2590301 5.68825779 -34.5 2.1875 C-33.8805249 2.00840088 -33.2610498 1.82930176 -32.62280273 1.64477539 C-22.19665433 -0.60113329 -10.5858164 0.00530883 0 0 Z M-50.5 45.1875 C-50.5 45.8475 -50.5 46.5075 -50.5 47.1875 C-51.49 47.5175 -52.48 47.8475 -53.5 48.1875 C-53.5 48.8475 -53.5 49.5075 -53.5 50.1875 C-54.16 50.1875 -54.82 50.1875 -55.5 50.1875 C-60.21023221 56.25972706 -63.68607656 62.72884976 -65.5 70.1875 C-65.71527344 71.02796875 -65.93054688 71.8684375 -66.15234375 72.734375 C-69.29568551 86.95131945 -66.64782853 103.08141326 -58.9375 115.4375 C-57.01083387 118.26957048 -55.1163183 120.95529491 -52.5 123.1875 C-51.84 123.1875 -51.18 123.1875 -50.5 123.1875 C-50.5 123.8475 -50.5 124.5075 -50.5 125.1875 C-38.20416386 133.00265009 -24.94594029 135.80559583 -10.5 136.1875 C-9.53175293 136.2181958 -9.53175293 136.2181958 -8.54394531 136.24951172 C10.21296957 136.78555015 32.35641045 135.65511389 47.5 123.1875 C59.10170228 111.07583279 61.86781051 98.12936848 61.72998047 81.81835938 C61.44355456 68.59271264 58.29750781 57.6409476 49.1171875 47.67578125 C27.85708609 28.11032561 -28.38103908 25.75588947 -50.5 45.1875 Z " fill="#FFFFFF" transform="translate(509.5,417.8125)"/>
<path d="M0 0 C1.51227425 -0.00639748 1.51227425 -0.00639748 3.05509949 -0.01292419 C4.17045074 -0.01247101 5.285802 -0.01201782 6.43495178 -0.0115509 C7.60231369 -0.01490952 8.7696756 -0.01826813 9.97241211 -0.02172852 C13.18313865 -0.029624 16.39382646 -0.03290744 19.60456157 -0.0335443 C22.28112464 -0.03449184 24.95768145 -0.03816835 27.63424212 -0.0417164 C33.94704698 -0.04986838 40.25983757 -0.05229996 46.57264709 -0.05158997 C53.09316209 -0.050989 59.6135944 -0.06154274 66.13408846 -0.07733363 C71.72475575 -0.09039222 77.31539596 -0.09577457 82.9060784 -0.09513456 C86.24845981 -0.09487907 89.5907678 -0.0977581 92.93313408 -0.10831261 C96.65907118 -0.11805535 100.38479283 -0.11525714 104.11073303 -0.10920715 C105.78072357 -0.11763641 105.78072357 -0.11763641 107.48445129 -0.12623596 C108.49545395 -0.12204147 109.5064566 -0.11784698 110.5480957 -0.11352539 C111.42987456 -0.11407016 112.31165342 -0.11461493 113.22015285 -0.1151762 C115.33753967 0.13371277 115.33753967 0.13371277 117.33753967 2.13371277 C117.53635076 4.99291811 117.61021001 7.7552757 117.59632874 10.61564636 C117.60158569 11.93316391 117.60158569 11.93316391 117.60694885 13.27729797 C117.61578487 16.19566142 117.60990541 19.11378412 117.60316467 22.03215027 C117.60451199 24.06320746 117.60645309 26.09426434 117.60896301 28.12532043 C117.61191779 32.39426222 117.60760976 36.66312052 117.59828186 40.93205261 C117.58695946 46.37671352 117.59339845 51.82117568 117.60542679 57.26582909 C117.61269789 61.46800701 117.61033225 65.67013886 117.6051712 69.87231827 C117.6038454 71.87756499 117.60544456 73.88281602 117.61013031 75.88805771 C117.62884541 86.16091318 117.56075793 96.05003712 115.33753967 106.13371277 C115.1462146 107.12487091 114.95488953 108.11602905 114.75776672 109.13722229 C111.57823579 125.15357991 102.28083818 140.36256024 89.27503967 150.19621277 C80.58922929 155.92515153 71.14219428 160.08734136 61.33753967 163.50871277 C60.67560608 163.74735046 60.01367249 163.98598816 59.3316803 164.2318573 C47.09220676 168.2506588 33.87672506 168.46781462 21.11073303 168.39445496 C18.9041539 168.38373276 16.69839142 168.39443378 14.49183655 168.40715027 C1.16812879 168.42210113 -12.5166998 167.83725871 -25.22496033 163.50871277 C-26.00814636 163.24856384 -26.7913324 162.98841492 -27.59825134 162.72038269 C-41.51326151 157.92360657 -52.4510483 151.77862813 -62.66246033 141.13371277 C-63.27605408 140.51625183 -63.88964783 139.89879089 -64.52183533 139.26261902 C-78.40354406 124.34335989 -81.01214696 104.40165676 -80.83042908 84.96574402 C-80.66246033 81.13371277 -80.66246033 81.13371277 -79.66246033 80.13371277 C-76.9469164 80.02030302 -74.25775989 79.96953257 -71.54136658 79.96574402 C-70.31872353 79.96075142 -70.31872353 79.96075142 -69.07138062 79.95565796 C-67.3438524 79.95058535 -65.61631434 79.94824974 -63.88877869 79.94841003 C-61.23960788 79.94622485 -58.59085417 79.92807656 -55.9417572 79.90910339 C-54.26662842 79.90616933 -52.59149766 79.90418462 -50.91636658 79.90324402 C-49.72256126 79.89246574 -49.72256126 79.89246574 -48.50463867 79.88146973 C-42.8912826 79.90489049 -42.8912826 79.90489049 -40.66246033 82.13371277 C-40.23936462 84.09806824 -40.23936462 84.09806824 -39.98667908 86.50090027 C-39.88387634 87.38108826 -39.78107361 88.26127625 -39.67515564 89.1681366 C-39.56784119 90.10552673 -39.46052673 91.04291687 -39.34996033 92.00871277 C-37.78246965 104.03869481 -35.18045417 114.8655565 -25.66246033 123.13371277 C-8.79032968 135.55212107 20.04358296 134.72272328 39.70472717 131.91105652 C44.42325243 130.90139359 48.59508452 129.21416288 52.94691467 127.15715027 C55.33753967 126.13371277 55.33753967 126.13371277 58.33753967 126.13371277 C58.33753967 125.47371277 58.33753967 124.81371277 58.33753967 124.13371277 C62.80812791 120.13371277 62.80812791 120.13371277 65.33753967 120.13371277 C65.59535217 119.60906433 65.85316467 119.08441589 66.11878967 118.54386902 C67.04918514 116.70395234 68.01395911 114.88137961 68.99378967 113.06730652 C69.60222717 111.91359558 70.21066467 110.75988464 70.83753967 109.57121277 C71.44597717 108.43554871 72.05441467 107.29988464 72.68128967 106.12980652 C76.73744145 97.30532722 76.65739706 87.33632528 76.75160217 77.80949402 C76.77096832 76.58207993 76.79033447 75.35466583 76.81028748 74.09005737 C76.86958136 70.20884428 76.91626668 66.32760071 76.96253967 62.44621277 C77.00076568 59.7984141 77.03982002 57.15062726 77.07972717 54.50285339 C77.17524114 48.04657891 77.26043229 41.59023193 77.33753967 35.13371277 C75.82204025 35.1403746 75.82204025 35.1403746 74.27592468 35.14717102 C64.76993228 35.18765597 55.26395728 35.2176677 45.75789833 35.23733711 C40.87034649 35.24778917 35.98286406 35.26197421 31.09535217 35.28459167 C26.38157338 35.30626948 21.66786149 35.31827067 16.95403671 35.32346725 C15.15263693 35.32717214 13.35124095 35.33440651 11.54986954 35.34517288 C9.03321066 35.35962064 6.51683078 35.36169355 4.00013733 35.36076355 C3.24991806 35.3679541 2.49969879 35.37514465 1.72674561 35.3825531 C-3.434356 35.36181709 -3.434356 35.36181709 -5.66246033 33.13371277 C-5.84960019 30.70804157 -5.9183131 28.3987361 -5.89292908 25.97355652 C-5.89247086 25.26848465 -5.89201263 24.56341278 -5.89154053 23.8369751 C-5.88851895 22.34659644 -5.88063543 20.85622093 -5.86827087 19.3658905 C-5.85000488 17.07679644 -5.84776124 14.7881065 -5.8480072 12.49894714 C-5.84309239 11.05298008 -5.83726422 9.60701578 -5.83042908 8.16105652 C-5.82931625 7.47253098 -5.82820343 6.78400543 -5.82705688 6.07461548 C-5.77072708 0.47564644 -5.53143858 0.01051714 0 0 Z " fill="#FFFFFF" transform="translate(87.66246032714844,419.8662872314453)"/>
</svg>
